<mxfile host="app.diagrams.net" agent="Mozilla/5.0 (Windows NT 10.0; Win64; x64) AppleWebKit/537.36 (KHTML, like Gecko) Chrome/129.0.0.0 Safari/537.36" version="24.7.17">
  <diagram name="Página-1" id="h3-XqdYV9PBH-u6u0g4_">
    <mxGraphModel dx="1195" dy="648" grid="1" gridSize="10" guides="1" tooltips="1" connect="1" arrows="1" fold="1" page="1" pageScale="1" pageWidth="827" pageHeight="1169" math="0" shadow="0">
      <root>
        <mxCell id="0" />
        <mxCell id="1" parent="0" />
        <mxCell id="J2sAbj2nR6ulc6irKPb2-1" value="Inicio" style="rounded=1;whiteSpace=wrap;html=1;" parent="1" vertex="1">
          <mxGeometry x="30" y="20" width="100" height="30" as="geometry" />
        </mxCell>
        <mxCell id="J2sAbj2nR6ulc6irKPb2-2" value="Estudiantes / Empleados" style="rounded=0;whiteSpace=wrap;html=1;" parent="1" vertex="1">
          <mxGeometry x="30" y="110" width="130" height="30" as="geometry" />
        </mxCell>
        <mxCell id="J2sAbj2nR6ulc6irKPb2-3" value="Empresas&amp;nbsp;" style="rounded=0;whiteSpace=wrap;html=1;" parent="1" vertex="1">
          <mxGeometry x="382" y="110" width="130" height="30" as="geometry" />
        </mxCell>
        <mxCell id="J2sAbj2nR6ulc6irKPb2-5" value="" style="endArrow=classic;html=1;rounded=0;exitX=0.5;exitY=1;exitDx=0;exitDy=0;entryX=0.387;entryY=-0.029;entryDx=0;entryDy=0;entryPerimeter=0;" parent="1" source="J2sAbj2nR6ulc6irKPb2-1" target="J2sAbj2nR6ulc6irKPb2-2" edge="1">
          <mxGeometry width="50" height="50" relative="1" as="geometry">
            <mxPoint x="55" y="100" as="sourcePoint" />
            <mxPoint x="105" y="50" as="targetPoint" />
            <Array as="points" />
          </mxGeometry>
        </mxCell>
        <mxCell id="J2sAbj2nR6ulc6irKPb2-6" value="" style="endArrow=classic;html=1;rounded=0;entryX=0.459;entryY=-0.09;entryDx=0;entryDy=0;entryPerimeter=0;" parent="1" target="J2sAbj2nR6ulc6irKPb2-3" edge="1">
          <mxGeometry width="50" height="50" relative="1" as="geometry">
            <mxPoint x="130" y="40" as="sourcePoint" />
            <mxPoint x="180" y="-10" as="targetPoint" />
            <Array as="points">
              <mxPoint x="440" y="40" />
            </Array>
          </mxGeometry>
        </mxCell>
        <mxCell id="J2sAbj2nR6ulc6irKPb2-25" value="" style="edgeStyle=orthogonalEdgeStyle;rounded=0;orthogonalLoop=1;jettySize=auto;html=1;exitX=0.5;exitY=1;exitDx=0;exitDy=0;entryX=0;entryY=0.5;entryDx=0;entryDy=0;" parent="1" source="J2sAbj2nR6ulc6irKPb2-8" target="J2sAbj2nR6ulc6irKPb2-24" edge="1">
          <mxGeometry relative="1" as="geometry">
            <mxPoint x="19.999999999999886" y="230" as="sourcePoint" />
            <mxPoint x="95.0526315789474" y="955" as="targetPoint" />
            <Array as="points">
              <mxPoint x="80" y="730" />
            </Array>
          </mxGeometry>
        </mxCell>
        <mxCell id="J2sAbj2nR6ulc6irKPb2-40" style="edgeStyle=orthogonalEdgeStyle;rounded=0;orthogonalLoop=1;jettySize=auto;html=1;" parent="1" source="J2sAbj2nR6ulc6irKPb2-8" edge="1">
          <mxGeometry relative="1" as="geometry">
            <mxPoint x="80" y="160" as="targetPoint" />
            <Array as="points">
              <mxPoint x="160" y="205" />
              <mxPoint x="160" y="160" />
            </Array>
          </mxGeometry>
        </mxCell>
        <mxCell id="J2sAbj2nR6ulc6irKPb2-8" value="Login" style="rhombus;whiteSpace=wrap;html=1;" parent="1" vertex="1">
          <mxGeometry x="45" y="190" width="70" height="30" as="geometry" />
        </mxCell>
        <mxCell id="J2sAbj2nR6ulc6irKPb2-10" value="" style="endArrow=classic;html=1;rounded=0;exitX=0.5;exitY=1;exitDx=0;exitDy=0;entryX=0.5;entryY=0;entryDx=0;entryDy=0;" parent="1" target="J2sAbj2nR6ulc6irKPb2-8" edge="1">
          <mxGeometry width="50" height="50" relative="1" as="geometry">
            <mxPoint x="79.64" y="140" as="sourcePoint" />
            <mxPoint x="70" y="250" as="targetPoint" />
            <Array as="points" />
          </mxGeometry>
        </mxCell>
        <mxCell id="J2sAbj2nR6ulc6irKPb2-17" value="Buscar producto" style="rounded=1;whiteSpace=wrap;html=1;" parent="1" vertex="1">
          <mxGeometry x="130" y="300" width="120" height="30" as="geometry" />
        </mxCell>
        <mxCell id="J2sAbj2nR6ulc6irKPb2-24" value="Logout" style="rounded=1;whiteSpace=wrap;html=1;" parent="1" vertex="1">
          <mxGeometry x="130" y="700" width="120" height="60" as="geometry" />
        </mxCell>
        <mxCell id="J2sAbj2nR6ulc6irKPb2-26" value="" style="endArrow=classic;html=1;rounded=0;entryX=0;entryY=0.5;entryDx=0;entryDy=0;" parent="1" target="J2sAbj2nR6ulc6irKPb2-17" edge="1">
          <mxGeometry width="50" height="50" relative="1" as="geometry">
            <mxPoint x="80" y="315" as="sourcePoint" />
            <mxPoint x="130" y="315" as="targetPoint" />
          </mxGeometry>
        </mxCell>
        <mxCell id="J2sAbj2nR6ulc6irKPb2-27" value="Ver producto" style="rounded=1;whiteSpace=wrap;html=1;" parent="1" vertex="1">
          <mxGeometry x="130" y="240" width="120" height="30" as="geometry" />
        </mxCell>
        <mxCell id="J2sAbj2nR6ulc6irKPb2-28" value="" style="endArrow=classic;html=1;rounded=0;entryX=0;entryY=0.5;entryDx=0;entryDy=0;" parent="1" target="J2sAbj2nR6ulc6irKPb2-27" edge="1">
          <mxGeometry width="50" height="50" relative="1" as="geometry">
            <mxPoint x="80" y="255" as="sourcePoint" />
            <mxPoint x="130" y="255" as="targetPoint" />
          </mxGeometry>
        </mxCell>
        <mxCell id="J2sAbj2nR6ulc6irKPb2-36" style="edgeStyle=orthogonalEdgeStyle;rounded=0;orthogonalLoop=1;jettySize=auto;html=1;entryX=0.5;entryY=0;entryDx=0;entryDy=0;" parent="1" source="J2sAbj2nR6ulc6irKPb2-33" target="J2sAbj2nR6ulc6irKPb2-35" edge="1">
          <mxGeometry relative="1" as="geometry">
            <mxPoint x="190" y="412.9999999999999" as="targetPoint" />
          </mxGeometry>
        </mxCell>
        <mxCell id="J2sAbj2nR6ulc6irKPb2-33" value="Añadir al carrito" style="rounded=1;whiteSpace=wrap;html=1;" parent="1" vertex="1">
          <mxGeometry x="130" y="361" width="120" height="30" as="geometry" />
        </mxCell>
        <mxCell id="J2sAbj2nR6ulc6irKPb2-34" value="" style="endArrow=classic;html=1;rounded=0;entryX=0;entryY=0.5;entryDx=0;entryDy=0;" parent="1" target="J2sAbj2nR6ulc6irKPb2-33" edge="1">
          <mxGeometry width="50" height="50" relative="1" as="geometry">
            <mxPoint x="80" y="376" as="sourcePoint" />
            <mxPoint x="130" y="376" as="targetPoint" />
          </mxGeometry>
        </mxCell>
        <mxCell id="J2sAbj2nR6ulc6irKPb2-37" style="edgeStyle=orthogonalEdgeStyle;rounded=0;orthogonalLoop=1;jettySize=auto;html=1;entryX=1;entryY=0.75;entryDx=0;entryDy=0;exitX=1;exitY=0.5;exitDx=0;exitDy=0;" parent="1" source="J2sAbj2nR6ulc6irKPb2-35" target="J2sAbj2nR6ulc6irKPb2-33" edge="1">
          <mxGeometry relative="1" as="geometry">
            <mxPoint x="260" y="463" as="sourcePoint" />
          </mxGeometry>
        </mxCell>
        <mxCell id="J2sAbj2nR6ulc6irKPb2-39" value="" style="edgeStyle=orthogonalEdgeStyle;rounded=0;orthogonalLoop=1;jettySize=auto;html=1;" parent="1" source="J2sAbj2nR6ulc6irKPb2-35" target="J2sAbj2nR6ulc6irKPb2-38" edge="1">
          <mxGeometry relative="1" as="geometry" />
        </mxCell>
        <mxCell id="J2sAbj2nR6ulc6irKPb2-35" value="Pedido" style="rhombus;whiteSpace=wrap;html=1;" parent="1" vertex="1">
          <mxGeometry x="130" y="443" width="120" height="50" as="geometry" />
        </mxCell>
        <mxCell id="J2sAbj2nR6ulc6irKPb2-38" value="Pago en ventanilla" style="rounded=1;whiteSpace=wrap;html=1;" parent="1" vertex="1">
          <mxGeometry x="130" y="568" width="120" height="35" as="geometry" />
        </mxCell>
        <mxCell id="J2sAbj2nR6ulc6irKPb2-41" style="edgeStyle=orthogonalEdgeStyle;rounded=0;orthogonalLoop=1;jettySize=auto;html=1;" parent="1" source="J2sAbj2nR6ulc6irKPb2-42" edge="1">
          <mxGeometry relative="1" as="geometry">
            <mxPoint x="444" y="160" as="targetPoint" />
            <Array as="points">
              <mxPoint x="524" y="205" />
              <mxPoint x="524" y="160" />
            </Array>
          </mxGeometry>
        </mxCell>
        <mxCell id="J2sAbj2nR6ulc6irKPb2-44" style="edgeStyle=orthogonalEdgeStyle;rounded=0;orthogonalLoop=1;jettySize=auto;html=1;entryX=1;entryY=0.5;entryDx=0;entryDy=0;" parent="1" source="J2sAbj2nR6ulc6irKPb2-42" target="J2sAbj2nR6ulc6irKPb2-24" edge="1">
          <mxGeometry relative="1" as="geometry" />
        </mxCell>
        <mxCell id="J2sAbj2nR6ulc6irKPb2-42" value="Login" style="rhombus;whiteSpace=wrap;html=1;" parent="1" vertex="1">
          <mxGeometry x="409" y="190" width="70" height="30" as="geometry" />
        </mxCell>
        <mxCell id="J2sAbj2nR6ulc6irKPb2-43" value="" style="endArrow=classic;html=1;rounded=0;exitX=0.5;exitY=1;exitDx=0;exitDy=0;entryX=0.5;entryY=0;entryDx=0;entryDy=0;" parent="1" target="J2sAbj2nR6ulc6irKPb2-42" edge="1">
          <mxGeometry width="50" height="50" relative="1" as="geometry">
            <mxPoint x="443.64" y="140" as="sourcePoint" />
            <mxPoint x="434" y="250" as="targetPoint" />
            <Array as="points" />
          </mxGeometry>
        </mxCell>
        <mxCell id="J2sAbj2nR6ulc6irKPb2-45" value="Añadir categoría" style="rounded=1;whiteSpace=wrap;html=1;" parent="1" vertex="1">
          <mxGeometry x="380" y="260" width="120" height="30" as="geometry" />
        </mxCell>
        <mxCell id="J2sAbj2nR6ulc6irKPb2-46" value="" style="endArrow=classic;html=1;rounded=0;entryX=0;entryY=0.5;entryDx=0;entryDy=0;" parent="1" target="J2sAbj2nR6ulc6irKPb2-45" edge="1">
          <mxGeometry width="50" height="50" relative="1" as="geometry">
            <mxPoint x="330" y="275" as="sourcePoint" />
            <mxPoint x="380" y="275" as="targetPoint" />
          </mxGeometry>
        </mxCell>
        <mxCell id="J2sAbj2nR6ulc6irKPb2-47" value="Añadir producto" style="rounded=1;whiteSpace=wrap;html=1;" parent="1" vertex="1">
          <mxGeometry x="380" y="320" width="120" height="30" as="geometry" />
        </mxCell>
        <mxCell id="J2sAbj2nR6ulc6irKPb2-48" value="" style="endArrow=classic;html=1;rounded=0;entryX=0;entryY=0.5;entryDx=0;entryDy=0;" parent="1" target="J2sAbj2nR6ulc6irKPb2-47" edge="1">
          <mxGeometry width="50" height="50" relative="1" as="geometry">
            <mxPoint x="330" y="335" as="sourcePoint" />
            <mxPoint x="380" y="335" as="targetPoint" />
          </mxGeometry>
        </mxCell>
        <mxCell id="J2sAbj2nR6ulc6irKPb2-49" value="Manejar orden" style="rounded=1;whiteSpace=wrap;html=1;" parent="1" vertex="1">
          <mxGeometry x="380" y="378" width="120" height="30" as="geometry" />
        </mxCell>
        <mxCell id="J2sAbj2nR6ulc6irKPb2-50" value="" style="endArrow=classic;html=1;rounded=0;entryX=0;entryY=0.5;entryDx=0;entryDy=0;" parent="1" target="J2sAbj2nR6ulc6irKPb2-49" edge="1">
          <mxGeometry width="50" height="50" relative="1" as="geometry">
            <mxPoint x="330" y="393" as="sourcePoint" />
            <mxPoint x="380" y="393" as="targetPoint" />
          </mxGeometry>
        </mxCell>
        <mxCell id="J2sAbj2nR6ulc6irKPb2-55" value="Verificar feedback" style="rounded=1;whiteSpace=wrap;html=1;" parent="1" vertex="1">
          <mxGeometry x="380" y="488" width="120" height="30" as="geometry" />
        </mxCell>
        <mxCell id="J2sAbj2nR6ulc6irKPb2-56" value="" style="endArrow=classic;html=1;rounded=0;entryX=0;entryY=0.5;entryDx=0;entryDy=0;" parent="1" target="J2sAbj2nR6ulc6irKPb2-55" edge="1">
          <mxGeometry width="50" height="50" relative="1" as="geometry">
            <mxPoint x="330" y="503" as="sourcePoint" />
            <mxPoint x="380" y="503" as="targetPoint" />
          </mxGeometry>
        </mxCell>
        <mxCell id="J2sAbj2nR6ulc6irKPb2-57" value="Reportes" style="shape=document;whiteSpace=wrap;html=1;boundedLbl=1;" parent="1" vertex="1">
          <mxGeometry x="560" y="570" width="80" height="70" as="geometry" />
        </mxCell>
        <mxCell id="J2sAbj2nR6ulc6irKPb2-58" value="" style="endArrow=classic;html=1;rounded=0;entryX=0.506;entryY=-0.034;entryDx=0;entryDy=0;entryPerimeter=0;exitX=1;exitY=0.5;exitDx=0;exitDy=0;" parent="1" source="J2sAbj2nR6ulc6irKPb2-45" target="J2sAbj2nR6ulc6irKPb2-57" edge="1">
          <mxGeometry width="50" height="50" relative="1" as="geometry">
            <mxPoint x="600" y="280" as="sourcePoint" />
            <mxPoint x="600" y="560" as="targetPoint" />
            <Array as="points">
              <mxPoint x="600" y="275" />
            </Array>
          </mxGeometry>
        </mxCell>
        <mxCell id="J2sAbj2nR6ulc6irKPb2-60" value="" style="endArrow=none;html=1;rounded=0;exitX=1;exitY=0.5;exitDx=0;exitDy=0;" parent="1" source="J2sAbj2nR6ulc6irKPb2-47" edge="1">
          <mxGeometry width="50" height="50" relative="1" as="geometry">
            <mxPoint x="550" y="378" as="sourcePoint" />
            <mxPoint x="600" y="335" as="targetPoint" />
          </mxGeometry>
        </mxCell>
        <mxCell id="J2sAbj2nR6ulc6irKPb2-62" value="" style="endArrow=none;html=1;rounded=0;exitX=1;exitY=0.5;exitDx=0;exitDy=0;" parent="1" edge="1">
          <mxGeometry width="50" height="50" relative="1" as="geometry">
            <mxPoint x="500" y="392.77" as="sourcePoint" />
            <mxPoint x="600" y="392.77" as="targetPoint" />
          </mxGeometry>
        </mxCell>
        <mxCell id="J2sAbj2nR6ulc6irKPb2-64" value="" style="endArrow=none;html=1;rounded=0;exitX=1;exitY=0.5;exitDx=0;exitDy=0;" parent="1" edge="1">
          <mxGeometry width="50" height="50" relative="1" as="geometry">
            <mxPoint x="500" y="502.77" as="sourcePoint" />
            <mxPoint x="600" y="502.77" as="targetPoint" />
          </mxGeometry>
        </mxCell>
        <mxCell id="J2sAbj2nR6ulc6irKPb2-65" value="fuente:&amp;nbsp;https://www.researchgate.net/figure/Flow-chart-diagram-Online-e-commerce-shopping-web-app_fig1_347169962" style="text;html=1;align=center;verticalAlign=middle;whiteSpace=wrap;rounded=0;" parent="1" vertex="1">
          <mxGeometry x="60" y="820" width="590" height="30" as="geometry" />
        </mxCell>
        <mxCell id="ha-smQpREiawvYsieVFP-3" value="Comentar y puntuar" style="rounded=1;whiteSpace=wrap;html=1;" vertex="1" parent="1">
          <mxGeometry x="130" y="630" width="120" height="30" as="geometry" />
        </mxCell>
        <mxCell id="ha-smQpREiawvYsieVFP-4" value="" style="endArrow=classic;html=1;rounded=0;entryX=0;entryY=0.5;entryDx=0;entryDy=0;" edge="1" parent="1" target="ha-smQpREiawvYsieVFP-3">
          <mxGeometry width="50" height="50" relative="1" as="geometry">
            <mxPoint x="80" y="645" as="sourcePoint" />
            <mxPoint x="130" y="645" as="targetPoint" />
          </mxGeometry>
        </mxCell>
      </root>
    </mxGraphModel>
  </diagram>
</mxfile>
